<mxfile host="app.diagrams.net" modified="2023-07-15T17:10:34.124Z" agent="Mozilla/5.0 (Windows NT 10.0; Win64; x64) AppleWebKit/537.36 (KHTML, like Gecko) Chrome/114.0.0.0 YaBrowser/23.7.0.2534 Yowser/2.5 Safari/537.36" etag="Db8bDco3StZfpGXU7LqF" version="21.6.2" type="device">
  <diagram name="Страница 1" id="HpMQiTfe9DI5k7RUMszi">
    <mxGraphModel dx="1055" dy="597" grid="1" gridSize="10" guides="1" tooltips="1" connect="1" arrows="1" fold="1" page="1" pageScale="1" pageWidth="827" pageHeight="1169" background="none" math="0" shadow="0">
      <root>
        <mxCell id="0" />
        <mxCell id="1" parent="0" />
        <mxCell id="tmewcdlZmCN9raxVAKi--21" value="" style="rounded=1;whiteSpace=wrap;html=1;" vertex="1" parent="1">
          <mxGeometry x="630" y="310" width="140" height="280" as="geometry" />
        </mxCell>
        <mxCell id="tmewcdlZmCN9raxVAKi--20" value="" style="rounded=1;whiteSpace=wrap;html=1;" vertex="1" parent="1">
          <mxGeometry x="430" y="310" width="140" height="280" as="geometry" />
        </mxCell>
        <mxCell id="tmewcdlZmCN9raxVAKi--19" value="" style="rounded=1;whiteSpace=wrap;html=1;" vertex="1" parent="1">
          <mxGeometry x="230" y="310" width="140" height="280" as="geometry" />
        </mxCell>
        <mxCell id="tmewcdlZmCN9raxVAKi--18" value="" style="rounded=1;whiteSpace=wrap;html=1;" vertex="1" parent="1">
          <mxGeometry x="30" y="310" width="140" height="280" as="geometry" />
        </mxCell>
        <mxCell id="tmewcdlZmCN9raxVAKi--3" style="edgeStyle=orthogonalEdgeStyle;rounded=0;orthogonalLoop=1;jettySize=auto;html=1;" edge="1" parent="1">
          <mxGeometry relative="1" as="geometry">
            <mxPoint x="360" y="220" as="sourcePoint" />
            <mxPoint x="100" y="300" as="targetPoint" />
          </mxGeometry>
        </mxCell>
        <mxCell id="tmewcdlZmCN9raxVAKi--5" style="edgeStyle=orthogonalEdgeStyle;rounded=0;orthogonalLoop=1;jettySize=auto;html=1;" edge="1" parent="1">
          <mxGeometry relative="1" as="geometry">
            <mxPoint x="400" y="250" as="sourcePoint" />
            <mxPoint x="300" y="300" as="targetPoint" />
            <Array as="points">
              <mxPoint x="400" y="260" />
              <mxPoint x="300" y="260" />
            </Array>
          </mxGeometry>
        </mxCell>
        <mxCell id="tmewcdlZmCN9raxVAKi--6" style="edgeStyle=orthogonalEdgeStyle;rounded=0;orthogonalLoop=1;jettySize=auto;html=1;" edge="1" parent="1">
          <mxGeometry relative="1" as="geometry">
            <mxPoint x="430" y="250" as="sourcePoint" />
            <mxPoint x="500" y="300" as="targetPoint" />
            <Array as="points">
              <mxPoint x="430" y="260" />
              <mxPoint x="500" y="260" />
            </Array>
          </mxGeometry>
        </mxCell>
        <mxCell id="tmewcdlZmCN9raxVAKi--7" style="edgeStyle=orthogonalEdgeStyle;rounded=0;orthogonalLoop=1;jettySize=auto;html=1;" edge="1" parent="1">
          <mxGeometry relative="1" as="geometry">
            <mxPoint x="470" y="220" as="sourcePoint" />
            <mxPoint x="699" y="300" as="targetPoint" />
          </mxGeometry>
        </mxCell>
        <mxCell id="q7UOCz89UzDU6AIDs1M5-1" value="&lt;font style=&quot;font-size: 15px;&quot;&gt;API&lt;/font&gt;" style="whiteSpace=wrap;html=1;aspect=fixed;rounded=1;glass=0;shadow=0;" parent="1" vertex="1">
          <mxGeometry x="370" y="150" width="90" height="90" as="geometry" />
        </mxCell>
        <mxCell id="q7UOCz89UzDU6AIDs1M5-9" value="Blog" style="swimlane;fontStyle=0;childLayout=stackLayout;horizontal=1;startSize=26;horizontalStack=0;resizeParent=1;resizeParentMax=0;resizeLast=0;collapsible=1;marginBottom=0;align=center;fontSize=14;" parent="1" vertex="1">
          <mxGeometry x="240" y="320" width="120" height="86" as="geometry">
            <mxRectangle x="240" y="320" width="70" height="30" as="alternateBounds" />
          </mxGeometry>
        </mxCell>
        <mxCell id="q7UOCz89UzDU6AIDs1M5-10" value="BlogCategory" style="text;strokeColor=none;fillColor=none;spacingLeft=4;spacingRight=4;overflow=hidden;rotatable=0;points=[[0,0.5],[1,0.5]];portConstraint=eastwest;fontSize=12;whiteSpace=wrap;html=1;" parent="q7UOCz89UzDU6AIDs1M5-9" vertex="1">
          <mxGeometry y="26" width="120" height="30" as="geometry" />
        </mxCell>
        <mxCell id="q7UOCz89UzDU6AIDs1M5-11" value="BlogPost" style="text;strokeColor=none;fillColor=none;spacingLeft=4;spacingRight=4;overflow=hidden;rotatable=0;points=[[0,0.5],[1,0.5]];portConstraint=eastwest;fontSize=12;whiteSpace=wrap;html=1;" parent="q7UOCz89UzDU6AIDs1M5-9" vertex="1">
          <mxGeometry y="56" width="120" height="30" as="geometry" />
        </mxCell>
        <mxCell id="q7UOCz89UzDU6AIDs1M5-17" value="&lt;font style=&quot;font-size: 14px;&quot;&gt;User&lt;/font&gt;" style="swimlane;fontStyle=0;childLayout=stackLayout;horizontal=1;startSize=30;horizontalStack=0;resizeParent=1;resizeParentMax=0;resizeLast=0;collapsible=1;marginBottom=0;whiteSpace=wrap;html=1;" parent="1" vertex="1">
          <mxGeometry x="40" y="320" width="120" height="120" as="geometry" />
        </mxCell>
        <mxCell id="q7UOCz89UzDU6AIDs1M5-18" value="BlogUser" style="text;strokeColor=none;fillColor=none;align=left;verticalAlign=middle;spacingLeft=4;spacingRight=4;overflow=hidden;points=[[0,0.5],[1,0.5]];portConstraint=eastwest;rotatable=0;whiteSpace=wrap;html=1;" parent="q7UOCz89UzDU6AIDs1M5-17" vertex="1">
          <mxGeometry y="30" width="120" height="30" as="geometry" />
        </mxCell>
        <mxCell id="q7UOCz89UzDU6AIDs1M5-19" value="Authentification" style="text;strokeColor=none;fillColor=none;align=left;verticalAlign=middle;spacingLeft=4;spacingRight=4;overflow=hidden;points=[[0,0.5],[1,0.5]];portConstraint=eastwest;rotatable=0;whiteSpace=wrap;html=1;" parent="q7UOCz89UzDU6AIDs1M5-17" vertex="1">
          <mxGeometry y="60" width="120" height="30" as="geometry" />
        </mxCell>
        <mxCell id="q7UOCz89UzDU6AIDs1M5-20" value="Refresh Token" style="text;strokeColor=none;fillColor=none;align=left;verticalAlign=middle;spacingLeft=4;spacingRight=4;overflow=hidden;points=[[0,0.5],[1,0.5]];portConstraint=eastwest;rotatable=0;whiteSpace=wrap;html=1;" parent="q7UOCz89UzDU6AIDs1M5-17" vertex="1">
          <mxGeometry y="90" width="120" height="30" as="geometry" />
        </mxCell>
        <mxCell id="q7UOCz89UzDU6AIDs1M5-22" value="&lt;font style=&quot;font-size: 14px;&quot;&gt;Comment&lt;/font&gt;" style="swimlane;fontStyle=0;childLayout=stackLayout;horizontal=1;startSize=30;horizontalStack=0;resizeParent=1;resizeParentMax=0;resizeLast=0;collapsible=1;marginBottom=0;whiteSpace=wrap;html=1;" parent="1" vertex="1">
          <mxGeometry x="440" y="320" width="120" height="60" as="geometry" />
        </mxCell>
        <mxCell id="q7UOCz89UzDU6AIDs1M5-23" value="CommentPost" style="text;strokeColor=none;fillColor=none;align=left;verticalAlign=middle;spacingLeft=4;spacingRight=4;overflow=hidden;points=[[0,0.5],[1,0.5]];portConstraint=eastwest;rotatable=0;whiteSpace=wrap;html=1;" parent="q7UOCz89UzDU6AIDs1M5-22" vertex="1">
          <mxGeometry y="30" width="120" height="30" as="geometry" />
        </mxCell>
        <mxCell id="q7UOCz89UzDU6AIDs1M5-26" value="&lt;font style=&quot;font-size: 14px;&quot;&gt;Notify&lt;/font&gt;" style="swimlane;fontStyle=0;childLayout=stackLayout;horizontal=1;startSize=30;horizontalStack=0;resizeParent=1;resizeParentMax=0;resizeLast=0;collapsible=1;marginBottom=0;whiteSpace=wrap;html=1;" parent="1" vertex="1">
          <mxGeometry x="638.33" y="320" width="121.67" height="90" as="geometry" />
        </mxCell>
        <mxCell id="q7UOCz89UzDU6AIDs1M5-27" value="Subscriber" style="text;strokeColor=none;fillColor=none;align=left;verticalAlign=middle;spacingLeft=4;spacingRight=4;overflow=hidden;points=[[0,0.5],[1,0.5]];portConstraint=eastwest;rotatable=0;whiteSpace=wrap;html=1;" parent="q7UOCz89UzDU6AIDs1M5-26" vertex="1">
          <mxGeometry y="30" width="121.67" height="30" as="geometry" />
        </mxCell>
        <mxCell id="q7UOCz89UzDU6AIDs1M5-28" value="Mail" style="text;strokeColor=none;fillColor=none;align=left;verticalAlign=middle;spacingLeft=4;spacingRight=4;overflow=hidden;points=[[0,0.5],[1,0.5]];portConstraint=eastwest;rotatable=0;whiteSpace=wrap;html=1;" parent="q7UOCz89UzDU6AIDs1M5-26" vertex="1">
          <mxGeometry y="60" width="121.67" height="30" as="geometry" />
        </mxCell>
        <mxCell id="q7UOCz89UzDU6AIDs1M5-30" value="&lt;font style=&quot;font-size: 13px;&quot;&gt;Mongo DB&lt;/font&gt;" style="strokeWidth=2;html=1;shape=mxgraph.flowchart.database;whiteSpace=wrap;" parent="1" vertex="1">
          <mxGeometry x="65" y="520" width="70" height="60" as="geometry" />
        </mxCell>
        <mxCell id="q7UOCz89UzDU6AIDs1M5-31" value="&lt;font style=&quot;font-size: 13px;&quot;&gt;Postgre SQL&lt;/font&gt;" style="strokeWidth=2;html=1;shape=mxgraph.flowchart.database;whiteSpace=wrap;" parent="1" vertex="1">
          <mxGeometry x="260" y="520" width="80" height="60" as="geometry" />
        </mxCell>
        <mxCell id="q7UOCz89UzDU6AIDs1M5-32" value="&lt;font style=&quot;font-size: 13px;&quot;&gt;Postgre SQL&lt;/font&gt;" style="strokeWidth=2;html=1;shape=mxgraph.flowchart.database;whiteSpace=wrap;" parent="1" vertex="1">
          <mxGeometry x="460" y="520" width="80" height="60" as="geometry" />
        </mxCell>
        <mxCell id="a8cYf45RuSAZL5lEl3a1-1" value="&lt;font style=&quot;font-size: 13px;&quot;&gt;Rabbit MQ&lt;/font&gt;" style="html=1;whiteSpace=wrap;aspect=fixed;shape=isoRectangle;" parent="1" vertex="1">
          <mxGeometry x="643.3299999999999" y="502" width="113.33" height="68" as="geometry" />
        </mxCell>
        <mxCell id="tmewcdlZmCN9raxVAKi--9" value="" style="endArrow=classic;html=1;rounded=0;" edge="1" parent="1">
          <mxGeometry width="50" height="50" relative="1" as="geometry">
            <mxPoint x="80" y="450" as="sourcePoint" />
            <mxPoint x="80" y="510" as="targetPoint" />
          </mxGeometry>
        </mxCell>
        <mxCell id="tmewcdlZmCN9raxVAKi--10" value="" style="endArrow=classic;html=1;rounded=0;" edge="1" parent="1">
          <mxGeometry width="50" height="50" relative="1" as="geometry">
            <mxPoint x="121" y="510" as="sourcePoint" />
            <mxPoint x="121" y="450" as="targetPoint" />
          </mxGeometry>
        </mxCell>
        <mxCell id="tmewcdlZmCN9raxVAKi--11" value="" style="endArrow=classic;html=1;rounded=0;" edge="1" parent="1">
          <mxGeometry width="50" height="50" relative="1" as="geometry">
            <mxPoint x="320" y="510" as="sourcePoint" />
            <mxPoint x="320" y="420" as="targetPoint" />
          </mxGeometry>
        </mxCell>
        <mxCell id="tmewcdlZmCN9raxVAKi--12" value="" style="endArrow=classic;html=1;rounded=0;" edge="1" parent="1">
          <mxGeometry width="50" height="50" relative="1" as="geometry">
            <mxPoint x="520" y="510" as="sourcePoint" />
            <mxPoint x="520" y="390" as="targetPoint" />
          </mxGeometry>
        </mxCell>
        <mxCell id="tmewcdlZmCN9raxVAKi--13" value="" style="endArrow=classic;html=1;rounded=0;" edge="1" parent="1">
          <mxGeometry width="50" height="50" relative="1" as="geometry">
            <mxPoint x="720" y="500" as="sourcePoint" />
            <mxPoint x="720" y="420" as="targetPoint" />
          </mxGeometry>
        </mxCell>
        <mxCell id="tmewcdlZmCN9raxVAKi--14" value="" style="endArrow=classic;html=1;rounded=0;" edge="1" parent="1">
          <mxGeometry width="50" height="50" relative="1" as="geometry">
            <mxPoint x="280" y="420" as="sourcePoint" />
            <mxPoint x="280" y="510" as="targetPoint" />
          </mxGeometry>
        </mxCell>
        <mxCell id="tmewcdlZmCN9raxVAKi--15" value="" style="endArrow=classic;html=1;rounded=0;" edge="1" parent="1">
          <mxGeometry width="50" height="50" relative="1" as="geometry">
            <mxPoint x="480" y="390" as="sourcePoint" />
            <mxPoint x="480" y="510" as="targetPoint" />
          </mxGeometry>
        </mxCell>
        <mxCell id="tmewcdlZmCN9raxVAKi--16" value="" style="endArrow=classic;html=1;rounded=0;" edge="1" parent="1">
          <mxGeometry width="50" height="50" relative="1" as="geometry">
            <mxPoint x="680" y="420" as="sourcePoint" />
            <mxPoint x="680" y="500" as="targetPoint" />
          </mxGeometry>
        </mxCell>
      </root>
    </mxGraphModel>
  </diagram>
</mxfile>
